<svg width="400" height="400" viewBox="0 0 400 400" xmlns="http://www.w3.org/2000/svg">
  <!-- Cat head -->
  <circle cx="200" cy="180" r="80" fill="none" stroke="#000" stroke-width="3"/>
  
  <!-- Cat ears -->
  <polygon points="140,120 160,80 180,120" fill="none" stroke="#000" stroke-width="3"/>
  <polygon points="220,120 240,80 260,120" fill="none" stroke="#000" stroke-width="3"/>
  
  <!-- Inner ears -->
  <polygon points="150,110 160,90 170,110" fill="none" stroke="#000" stroke-width="2"/>
  <polygon points="230,110 240,90 250,110" fill="none" stroke="#000" stroke-width="2"/>
  
  <!-- Eyes -->
  <circle cx="170" cy="160" r="12" fill="none" stroke="#000" stroke-width="3"/>
  <circle cx="230" cy="160" r="12" fill="none" stroke="#000" stroke-width="3"/>
  
  <!-- Nose -->
  <polygon points="200,180 195,190 205,190" fill="none" stroke="#000" stroke-width="3"/>
  
  <!-- Mouth -->
  <path d="M 200 190 Q 190 200 180 195" fill="none" stroke="#000" stroke-width="2"/>
  <path d="M 200 190 Q 210 200 220 195" fill="none" stroke="#000" stroke-width="2"/>
  
  <!-- Whiskers -->
  <line x1="120" y1="170" x2="160" y2="175" stroke="#000" stroke-width="2"/>
  <line x1="120" y1="180" x2="160" y2="180" stroke="#000" stroke-width="2"/>
  <line x1="240" y1="175" x2="280" y2="170" stroke="#000" stroke-width="2"/>
  <line x1="240" y1="180" x2="280" y2="180" stroke="#000" stroke-width="2"/>
  
  <!-- Body -->
  <ellipse cx="200" cy="280" rx="60" ry="40" fill="none" stroke="#000" stroke-width="3"/>
  
  <!-- Tail -->
  <path d="M 260 280 Q 320 250 340 300 Q 320 350 280 320" fill="none" stroke="#000" stroke-width="3"/>
  
  <!-- Legs -->
  <ellipse cx="170" cy="320" rx="15" ry="25" fill="none" stroke="#000" stroke-width="3"/>
  <ellipse cx="230" cy="320" rx="15" ry="25" fill="none" stroke="#000" stroke-width="3"/>
</svg>
